<svg xmlns="http://www.w3.org/2000/svg" width="268" height="152" fill="none"><g filter="url(#a)"><path fill="#E9D5FF" d="M-134-76h536v304h-536V-76Z"/><path fill="#fff" d="m-6.068-16-54.611 120 186.083 87.8 24.272-37.8"/><path fill="#D9F99D" d="M70.793-45 54.61 83l10.114 80.8L269.01 12"/><path fill="#E9D5FF" d="M306.43 39 144.619 195l70.792 34.8 113.268-1.8"/><path fill="#D9F99D" d="m47.532 46-115.29 112 78.883 61.8L110.234 75"/><path fill="#E9D5FF" d="m44.498 141-4.045 64 180.015 113.8 1.011-33.8"/><path fill="#E9D5FF" d="m209.343 105-67.758 10 55.623 193.8L340.815 119"/></g><defs><filter id="a" width="649.42" height="508.22" x="-190.71" y="-132.71" color-interpolation-filters="sRGB" filterUnits="userSpaceOnUse"><feFlood flood-opacity="0" result="BackgroundImageFix"/><feBlend in="SourceGraphic" in2="BackgroundImageFix" result="shape"/><feGaussianBlur result="effect1_foregroundBlur_67_1356" stdDeviation="28.355"/></filter></defs></svg>